Coordinates
version=1
nRows=29
nColumns=24
inDegrees=yes

Units are S.I. units (second, meters, Newtons, ...)
Angles are in degrees.

endheader
time	pelvis_tilt	pelvis_list	pelvis_rotation	pelvis_tx	pelvis_ty	pelvis_tz	hip_flexion_r	hip_adduction_r	hip_rotation_r	knee_angle_r	ankle_angle_r	subtalar_angle_r	mtp_angle_r	hip_flexion_l	hip_adduction_l	hip_rotation_l	knee_angle_l	ankle_angle_l	subtalar_angle_l	mtp_angle_l	lumbar_extension	lumbar_bending	lumbar_rotation
      0.43300000	     -6.00675736	      2.99638820	      0.49561083	     -0.82037573	      1.02430149	      0.30002137	     36.03170551	     -2.11038934	     -1.87507380	     -7.01512583	     10.83216086	     -3.99718580	      6.29517540	    -11.06705000	      4.60107691	      2.55832247	     -7.36003550	     21.85527155	      9.84813536	      2.20125055	     -9.37189317	     -2.29844435	     -3.31489639
      0.43716667	     -6.01045030	      3.01005084	      0.64607634	     -0.81430734	      1.02326820	      0.30012480	     35.94570926	     -2.13031924	     -1.63917227	     -7.34953215	     10.80097232	     -4.15770631	      6.29748237	    -11.19171737	      4.55952013	      2.55959700	     -7.85232329	     21.97625313	     10.06139261	      2.24799618	     -9.35366094	     -2.19010800	     -3.41908985
      0.44133333	     -6.03925697	      3.01564894	      0.79863536	     -0.80816492	      1.02223570	      0.30023249	     35.87157343	     -2.14351874	     -1.42199766	     -7.69055424	     10.73024375	     -4.31437110	      6.30826284	    -11.26544928	      4.50411260	      2.51623413	     -8.40234779	     22.10552890	     10.35390700	      2.32940772	     -9.29674004	     -2.07082685	     -3.47740068
      0.44550000	     -6.04929170	      3.00801057	      0.95473300	     -0.80198989	      1.02128022	      0.30033945	     35.76109804	     -2.14735569	     -1.23329804	     -8.02808403	     10.61980055	     -4.46225895	      6.32670776	    -11.34499570	      4.42968985	      2.46186338	     -8.98675832	     22.21117261	     10.65854948	      2.44383687	     -9.26121860	     -1.93038781	     -3.54822044
      0.44966667	     -6.06721486	      3.00345581	      1.10224997	     -0.79579286	      1.02035201	      0.30046906	     35.65611040	     -2.14883641	     -1.05436417	     -8.37903523	     10.46410142	     -4.62119294	      6.35711853	    -11.39570784	      4.35636339	      2.38954962	     -9.61131488	     22.29612198	     10.98804232	      2.59995475	     -9.21278381	     -1.79402667	     -3.59655065
      0.45383333	     -6.09130344	      2.98429368	      1.25937018	     -0.78954047	      1.01947935	      0.30058797	     35.53764127	     -2.14326720	     -0.90932403	     -8.71330362	     10.25432153	     -4.77751743	      6.39444419	    -11.42066490	      4.26175145	      2.30635180	    -10.27712759	     22.35416127	     11.32702939	      2.78183067	     -9.14682436	     -1.63630630	     -3.65579745
      0.45800000	     -6.11105265	      2.96965857	      1.39820943	     -0.78328197	      1.01865200	      0.30074049	     35.42419296	     -2.13281489	     -0.78332813	     -9.07601700	      9.98506162	     -4.95667072	      6.45395328	    -11.42719422	      4.17007214	      2.17349040	    -10.98981254	     22.39519150	     11.71865682	      3.05236132	     -9.09868638	     -1.48647214	     -3.69047992
      0.46216667	     -6.13636330	      2.93798679	      1.54346312	     -0.77698397	      1.01788823	      0.30088699	     35.29751187	     -2.11110168	     -0.68107144	     -9.41195967	      9.65571424	     -5.15114872	      6.52277069	    -11.40743641	      4.05562699	      2.04480531	    -11.74380690	     22.39351359	     12.09699042	      3.36616773	     -9.02956678	     -1.31028765	     -3.73455102
      0.46633333	     -6.17433035	      2.89602669	      1.68514306	     -0.77063463	      1.01717470	      0.30104122	     35.17952016	     -2.08065298	     -0.61336820	     -9.74816132	      9.27481191	     -5.34982842	      6.59439959	    -11.35584389	      3.92869703	      1.91185266	    -12.53397518	     22.35478331	     12.46302479	      3.69745701	     -8.93692675	     -1.11939425	     -3.75419843
      0.47050000	     -6.19682730	      2.83971228	      1.83131656	     -0.76428714	      1.01656119	      0.30118870	     35.03576019	     -2.04200778	     -0.57916541	    -10.06859601	      8.85019088	     -5.54434538	      6.66279736	    -11.29286000	      3.78230813	      1.78702775	    -13.37657572	     22.27522673	     12.81310884	      4.03274009	     -8.85946408	     -0.91231390	     -3.76211196
      0.47466667	     -6.21948708	      2.79975026	      1.94878322	     -0.75795691	      1.01599612	      0.30140760	     34.91584573	     -2.00419741	     -0.53948612	    -10.42817092	      8.34587365	     -5.77953016	      6.77053659	    -11.19979672	      3.64805102	      1.57542791	    -14.27111084	     22.16436514	     13.29481803	      4.58535798	     -8.80317014	     -0.74216380	     -3.76368790
      0.47883333	     -6.25245264	      2.72676545	      2.06510277	     -0.75155453	      1.01549523	      0.30157725	     34.81602033	     -1.94791858	     -0.61836138	    -10.81714531	      7.87289760	     -5.86732302	      7.43631307	    -11.08891139	      3.48478767	      1.41602834	    -15.16984069	     21.90617383	     13.59022782	      8.05049003	     -8.70644013	     -0.50729137	     -3.66065826
      0.48300000	     -6.29281958	      2.64209279	      2.18757836	     -0.74515902	      1.01508696	      0.30177985	     34.70481658	     -1.87663993	     -0.62054078	    -11.16724159	      7.29580692	     -6.19614627	      7.42599579	    -10.93673308	      3.30758847	      1.30307388	    -16.13622051	     21.69061576	     13.85061043	      8.14136272	     -8.60229609	     -0.25278942	     -3.71596266
      0.48716667	     -6.33242174	      2.55068037	      2.28495631	     -0.73875883	      1.01472577	      0.30202472	     34.62334480	     -1.79292815	     -0.67506381	    -11.57706362	      6.72887691	     -6.42823896	      7.42309168	    -10.75222165	      3.11413302	      1.07878687	    -17.16528468	     21.43807662	     14.25831927	      8.31334948	     -8.50309606	     -0.00340546	     -3.65763063
      0.49133333	     -6.33759330	      2.46242413	      2.35814578	     -0.73239088	      1.01448753	      0.30231639	     34.52976485	     -1.70323437	     -0.72991067	    -12.03027850	      6.14696567	     -6.66607740	      7.42513639	    -10.57453015	      2.91959050	      0.81872295	    -18.23346775	     21.11656942	     14.71938299	      8.62563334	     -8.45846630	      0.24237014	     -3.59777238
      0.49550000	     -6.38219452	      2.34091727	      2.43981091	     -0.72597045	      1.01427462	      0.30258116	     34.47940284	     -1.59339665	     -0.83034625	    -12.49913903	      5.62014575	     -6.85666575	      7.42369572	    -10.32460323	      2.69231237	      0.59761965	    -19.36407479	     20.75449387	     15.03523308	      8.93020844	     -8.33928080	      0.53236228	     -3.51062880
      0.49966667	     -6.40123314	      2.21872579	      2.49949430	     -0.71957479	      1.01417301	      0.30289254	     34.42594244	     -1.47539970	     -0.93326118	    -13.01521059	      5.08848064	     -7.03903545	      7.41823255	    -10.07435609	      2.45719293	      0.33486982	    -20.52702877	     20.31881784	     15.42050101	      9.28893951	     -8.26486611	      0.82294434	     -3.41334815
      0.50383333	     -6.39248116	      2.11012640	      2.53170232	     -0.71321299	      1.01418991	      0.30327258	     34.36915311	     -1.35546152	     -1.00519474	    -13.58379203	      4.55726218	     -7.26396042	      7.39605150	     -9.83662609	      2.23899537	      0.09417561	    -21.69529689	     19.67566934	     15.69817537	     13.96031483	     -8.24488156	      1.09151678	     -3.30179343
      0.50800000	     -6.40785233	      1.97751859	      2.56622610	     -0.70682529	      1.01422029	      0.30362235	     34.35889589	     -1.22800986	     -1.15591307	    -14.20907477	      4.17566244	     -7.30468746	      7.38321136	     -9.52626905	      1.98891064	     -0.17871488	    -22.95920089	     19.11306326	     16.02519629	     14.03696804	     -8.16457644	      1.39772565	     -3.19021526
      0.51216667	     -6.39268647	      1.84189435	      2.56554033	     -0.70047024	      1.01434339	      0.30406172	     34.33897665	     -1.07553371	     -1.25719763	    -14.87955004	      3.79067325	     -7.43561109	      7.35744942	     -9.22220396	      1.72449135	     -0.51873597	    -24.25942909	     18.47356122	     16.43727924	     14.22217165	     -8.14538716	      1.71062903	     -3.05390862
      0.51633333	     -6.39483351	      1.69507301	      2.57346441	     -0.69411142	      1.01452908	      0.30448672	     34.32997806	     -0.92240303	     -1.36719095	    -15.54154853	      3.45665276	     -7.49403527	      7.32908254	     -8.86570953	      1.44990178	     -0.79788343	    -25.61171302	     17.76170740	     16.71309098	     14.42031057	     -8.08697743	      2.01610174	     -2.90970519
      0.52050000	     -6.35706771	      1.55536923	      2.54378700	     -0.68779230	      1.01481275	      0.30500364	     34.29878792	     -0.75005379	     -1.41628847	    -16.24371709	      3.12664402	     -7.66326778	      6.88621124	     -8.53163447	      1.17357910	     -1.12806768	    -26.97128579	     16.89132420	     17.00067219	     18.06963579	     -8.09887374	      2.32354395	     -2.73940325
      0.52466667	     -6.31245965	      1.40348193	      2.50946307	     -0.68147018	      1.01514328	      0.30550061	     34.27448511	     -0.57857292	     -1.54627021	    -16.98493497	      2.96470834	     -7.57418200	      6.87688276	     -8.17109251	      0.87948119	     -1.46111201	    -28.39600728	     16.04568377	     17.27265169	     18.13268915	     -8.10815094	      2.65131483	     -2.59048508
      0.52883333	     -6.26702738	      1.25388257	      2.45689816	     -0.67517919	      1.01551727	      0.30605525	     34.25073692	     -0.39473006	     -1.62543514	    -17.72806774	      2.79005162	     -7.58529731	      6.85287091	     -7.78250223	      0.58155856	     -1.80203062	    -29.85632891	     15.14454231	     17.55486042	     18.26355081	     -8.12592994	      2.97161946	     -2.41578342
      0.53300000	     -6.20117668	      1.10301097	      2.38977810	     -0.66891112	      1.01595953	      0.30665091	     34.19658449	     -0.19997209	     -1.68496685	    -18.45138262	      2.65127988	     -7.57160702	      6.82016279	     -7.38958169	      0.27517882	     -2.14863098	    -31.34963000	     14.17916018	     17.78227487	     18.43061738	     -8.16833623	      3.28533572	     -2.23219314
      0.53716667	     -6.09682338	      0.91819891	      2.30996408	     -0.66264890	      1.01652057	      0.30728436	     34.07144473	      0.04428319	     -1.69375688	    -19.11471959	      2.48681344	     -7.69808823	      6.36163368	     -7.01938967	     -0.07671308	     -2.49546014	    -32.85503121	     13.11598942	     17.93984927	     20.70548853	     -8.27242292	      3.64771245	     -1.91309473
      0.54133333	     -6.04452016	      0.80907225	      2.21450187	     -0.65644595	      1.01697812	      0.30795268	     34.04036071	      0.20825181	     -1.75007623	    -19.85618594	      2.47837147	     -7.52947409	      6.34990542	     -6.56559005	     -0.34442531	     -2.82880949	    -34.39461210	     12.02903689	     18.08533424	     20.77211467	     -8.29802802	      3.89703434	     -1.84556687
      0.54550000	     -5.94910324	      0.67545077	      2.11564480	     -0.65026420	      1.01756975	      0.30862562	     33.92371328	      0.40750549	     -1.75870017	    -20.51571670	      2.44263286	     -7.47348249	      6.33836590	     -6.14524125	     -0.63562534	     -3.11237515	    -35.93284182	     10.87584238	     18.11831790	     20.81155602	     -8.39412717	      4.20232318	     -1.71054840
      0.54966667	     -5.86924143	      0.52072151	      2.00333725	     -0.64410247	      1.01811269	      0.30936849	     33.81344415	      0.63702023	     -1.78126574	    -21.15082096	      2.41321377	     -7.42894884	      6.30630004	     -5.66653306	     -0.98142830	     -3.48912262	    -37.54441876	      9.80512723	     18.24088115	     20.91108431	     -8.45837429	      4.49370461	     -1.47289081
